<svg xmlns="http://www.w3.org/2000/svg"  viewBox="0 0 50 50" width="50px" height="50px"><path d="M 18 12 L 2.171875 40 L 1.898438 40.464844 L 13.53125 32.679688 L 21.828125 18 L 30 18 C 30.769531 18 31.25 18.832031 30.871094 19.488281 L 29.410156 22.0625 L 41.25 14.128906 C 40.738281 12.921875 39.550781 12 38.050781 12 Z M 48.960938 12 L 14.578125 35 L 31.089844 35 L 37.542969 23.5 L 49 12 Z M 19.167969 14 L 37.847656 14 L 32.609375 17.511719 C 32.605469 17.507813 32.601563 17.503906 32.597656 17.5 C 32.066406 16.574219 31.070313 16 30 16 L 20.660156 16 L 20.089844 17.015625 L 12.023438 31.28125 L 7.796875 34.109375 Z M 35.175781 23.625 L 29.921875 33 L 21.167969 33 Z"/></svg>